Coordinates
version=1
nRows=19
nColumns=24
inDegrees=yes

Units are S.I. units (second, meters, Newtons, ...)
Angles are in degrees.

endheader
time	pelvis_tilt	pelvis_list	pelvis_rotation	pelvis_tx	pelvis_ty	pelvis_tz	hip_flexion_r	hip_adduction_r	hip_rotation_r	knee_angle_r	ankle_angle_r	subtalar_angle_r	mtp_angle_r	hip_flexion_l	hip_adduction_l	hip_rotation_l	knee_angle_l	ankle_angle_l	subtalar_angle_l	mtp_angle_l	lumbar_extension	lumbar_bending	lumbar_rotation
      5.63000000	     53.26414570	      4.19766238	     -4.14081543	      1.28692537	      1.04429931	     -0.28814382	     23.17950545	     -6.78232906	      3.87159327	    -49.44468218	    -22.36018429	      0.00000000	      0.00000000	     17.98414715	    -11.25556658	     -5.44053118	    -62.78768792	    -14.83480826	      0.00000000	      0.00000000	      0.00000000	      0.00000000	      0.00000000
      5.64000000	     53.26343231	      4.19166893	     -4.13702648	      1.28692277	      1.04430239	     -0.28814127	     23.19291995	     -6.71791482	      3.77054849	    -49.17406949	    -22.32668599	      0.00000000	      0.00000000	     17.98775060	    -11.27169255	     -5.43458485	    -62.79601489	    -14.84378722	      0.00000000	      0.00000000	      0.00000000	      0.00000000	      0.00000000
      5.65000000	     53.26060792	      4.18863591	     -4.12904167	      1.28692875	      1.04430389	     -0.28813004	     23.20607945	     -6.66178421	      3.69078323	    -48.98187317	    -22.30164235	      0.00000000	      0.00000000	     17.99339183	    -11.28338000	     -5.42415734	    -62.80217461	    -14.85365192	      0.00000000	      0.00000000	      0.00000000	      0.00000000	      0.00000000
      5.66000000	     53.25506992	      4.18780275	     -4.11863493	      1.28693805	      1.04430182	     -0.28811780	     23.21882412	     -6.61371032	      3.63323165	    -48.86999331	    -22.27931380	      0.00000000	      0.00000000	     18.00141749	    -11.29111381	     -5.41032172	    -62.80738866	    -14.86401384	      0.00000000	      0.00000000	      0.00000000	      0.00000000	      0.00000000
      5.67000000	     53.24679741	      4.18835917	     -4.10792631	      1.28693733	      1.04429555	     -0.28811327	     23.23253206	     -6.57627721	      3.59464747	    -48.83838192	    -22.25944880	      0.00000000	      0.00000000	     18.01227788	    -11.29579475	     -5.39525053	    -62.81273206	    -14.87403074	      0.00000000	      0.00000000	      0.00000000	      0.00000000	      0.00000000
      5.68000000	     53.23625798	      4.18988224	     -4.09868793	      1.28693080	      1.04428605	     -0.28811791	     23.24978020	     -6.55307364	      3.56986070	    -48.88522802	    -22.24489741	      0.00000000	      0.00000000	     18.02621364	    -11.29839613	     -5.38136253	    -62.81897104	    -14.88265426	      0.00000000	      0.00000000	      0.00000000	      0.00000000	      0.00000000
      5.69000000	     53.22335360	      4.19242659	     -4.09233787	      1.28693552	      1.04427598	     -0.28812804	     23.27268646	     -6.54686736	      3.55413883	    -49.00808355	    -22.23873270	      0.00000000	      0.00000000	     18.04321765	    -11.29951514	     -5.37050825	    -62.82655017	    -14.88893298	      0.00000000	      0.00000000	      0.00000000	      0.00000000	      0.00000000
      5.70000000	     53.20687948	      4.19621289	     -4.09005109	      1.28695419	      1.04426653	     -0.28814212	     23.30159117	     -6.55837564	      3.54509086	    -49.20498350	    -22.24220074	      0.00000000	      0.00000000	     18.06318284	    -11.29907273	     -5.36343050	    -62.83561744	    -14.89227033	      0.00000000	      0.00000000	      0.00000000	      0.00000000	      0.00000000
      5.71000000	     53.18554760	      4.20128750	     -4.09235125	      1.28697453	      1.04425553	     -0.28816290	     23.33534704	     -6.58610279	      3.54373667	    -49.47464669	    -22.25426268	      0.00000000	      0.00000000	     18.08606791	    -11.29644228	     -5.35952639	    -62.84598346	    -14.89255236	      0.00000000	      0.00000000	      0.00000000	      0.00000000	      0.00000000
      5.72000000	     53.15957082	      4.20757165	     -4.09822288	      1.28699229	      1.04424128	     -0.28818903	     23.37263461	     -6.62711017	      3.55424843	    -49.81586234	    -22.27274009	      0.00000000	      0.00000000	     18.11187167	    -11.29089423	     -5.35702902	    -62.85706458	    -14.89010021	      0.00000000	      0.00000000	      0.00000000	      0.00000000	      0.00000000
      5.73000000	     53.13078777	      4.21530283	     -4.10466876	      1.28701117	      1.04422201	     -0.28821135	     23.41249496	     -6.67826772	      3.58203594	    -50.22689054	    -22.29643798	      0.00000000	      0.00000000	     18.14048961	    -11.28198372	     -5.35373257	    -62.86787861	    -14.88547979	      0.00000000	      0.00000000	      0.00000000	      0.00000000	      0.00000000
      5.74000000	     53.10115500	      4.22520881	     -4.10743126	      1.28702872	      1.04419446	     -0.28822264	     23.45367416	     -6.73790009	      3.63077340	    -50.70508150	    -22.32724251	      0.00000000	      0.00000000	     18.17167975	    -11.26965285	     -5.34806749	    -62.87717325	    -14.87926993	      0.00000000	      0.00000000	      0.00000000	      0.00000000	      0.00000000
      5.75000000	     53.07129470	      4.23792985	     -4.10286724	      1.28704629	      1.04415946	     -0.28823261	     23.49408518	     -6.80760037	      3.69968406	    -51.24622668	    -22.37110647	      0.00000000	      0.00000000	     18.20519534	    -11.25407480	     -5.34003402	    -62.88378578	    -14.87189480	      0.00000000	      0.00000000	      0.00000000	      0.00000000	      0.00000000
      5.76000000	     53.04024244	      4.25323077	     -4.09042316	      1.28707944	      1.04412689	     -0.28827162	     23.53133372	     -6.89300849	      3.78218060	    -51.84369162	    -22.43710631	      0.00000000	      0.00000000	     18.24090619	    -11.23524071	     -5.33155307	    -62.88726642	    -14.86357847	      0.00000000	      0.00000000	      0.00000000	      0.00000000	      0.00000000
      5.77000000	     53.00649498	      4.26998529	     -4.07426425	      1.28713383	      1.04411601	     -0.28835843	     23.56436870	     -7.00203527	      3.86658049	    -52.48813182	    -22.53445427	      0.00000000	      0.00000000	     18.27856923	    -11.21223417	     -5.32609402	    -62.88863399	    -14.85443053	      0.00000000	      0.00000000	      0.00000000	      0.00000000	      0.00000000
      5.78000000	     52.96970785	      4.28775168	     -4.06248978	      1.28717292	      1.04414457	     -0.28845555	     23.59531586	     -7.14000648	      3.93920514	    -53.16884752	    -22.66829586	      0.00000000	      0.00000000	     18.31722118	    -11.18264909	     -5.32762062	    -62.89071858	    -14.84460996	      0.00000000	      0.00000000	      0.00000000	      0.00000000	      0.00000000
      5.79000000	     52.93200365	      4.30931355	     -4.06356798	      1.28714167	      1.04419646	     -0.28849310	     23.62992601	     -7.30382995	      3.98977653	    -53.87729284	    -22.83586306	      0.00000000	      0.00000000	     18.35476750	    -11.14329354	     -5.33891957	    -62.89729747	    -14.83446042	      0.00000000	      0.00000000	      0.00000000	      0.00000000	      0.00000000
      5.80000000	     52.89809427	      4.34095562	     -4.08124236	      1.28707013	      1.04420130	     -0.28848002	     23.67562870	     -7.48021230	      4.01852961	    -54.61193502	    -23.02474742	      0.00000000	      0.00000000	     18.38862837	    -11.09296187	     -5.35958725	    -62.91073598	    -14.82452376	      0.00000000	      0.00000000	      0.00000000	      0.00000000	      0.00000000
      5.81000000	     52.87271111	      4.38654064	     -4.11071501	      1.28711297	      1.04408892	     -0.28855128	     23.73676748	     -7.65240151	      4.04277602	    -55.38264450	    -23.21458289	      0.00000000	      0.00000000	     18.41760082	    -11.03593453	     -5.38467190	    -62.92925241	    -14.81541590	      0.00000000	      0.00000000	      0.00000000	      0.00000000	      0.00000000
